<?xml version="1.0" encoding="utf-8"?>
<!-- Generator: Adobe Illustrator 28.1.0, SVG Export Plug-In . SVG Version: 6.00 Build 0)  -->
<svg version="1.1" id="Layer_1" xmlns="http://www.w3.org/2000/svg" xmlns:xlink="http://www.w3.org/1999/xlink" x="0px" y="0px"
	 viewBox="0 0 1127.8 479.1" style="enable-background:new 0 0 1127.8 479.1;" xml:space="preserve">
<g id="Layer_2_00000106856291301505697020000007102770503387912117_">
	<g id="Layer_1-2">
		<path d="M512,477.3h-43.5c-9.3,0-16.1-4-19.3-11.6l-39.7-93.4H197.7c-21.5,0-40.7,11.4-47.9,28.5l-27.6,64.9
			c-3.2,7.5-9.9,11.6-19.3,11.6H59.5c-12.5,0-17.9-6.2-13.7-16.3L239.1,19.3c3.2-7.4,10.1-11.6,19.4-11.6h54.4
			c9.3,0,16.3,4.2,19.4,11.6l193.3,441.8C529.8,471.1,524.5,477.3,512,477.3z M384.8,314l-99-233.1L186.7,314H384.8z"/>
		<path d="M887.7,268.3l22.9,19.9c5.9,5.1,5.6,13.7-0.6,19.1L724.2,468.5l-7.4,6.4c-6.2,5.4-16.1,5.7-22,0.5L364.4,188.6
			c-5.9-5.1-5.6-13.7,0.6-19.1l38-32.9L555.4,4.2c6.3-5.4,16.1-5.7,22-0.6l22.9,19.9c5.9,5.1,5.6,13.7-0.6,19.1L447.2,174.9
			l108.2,93.9l139.2-120.8c6.3-5.4,16.1-5.7,22-0.6l22.4,19.4c5.9,5.1,5.6,13.7-0.6,19.1L599.1,306.8l79.7,69.1
			c17.5,15.2,46.8,14.5,65.4-1.6l121.5-105.4C872,263.4,881.8,263.2,887.7,268.3z"/>
		<path d="M967.6,7.7h69.1v469h-43.4c-8.6,0-15.1-2.9-19.3-9.2L743.3,130v315.7c0,17.1-18.5-3-37.6-3l0,0c-19.1,0-31.6,20.2-31.6,3
			V7.7h43.4c8.6,0,15.1,2.8,19.3,9.2l230.8,337.5L967.6,7.7z"/>
		<path d="M1000.7,8l24.7,20c5.5,39.3,5.1,32,21.8,11.5c5.4-6.5,11.5-12.4,18.1-17.5l18.1-14.1"/>
	</g>
</g>
</svg>
